<?xml version="1.0" encoding="UTF-8"?>
<svg xmlns="http://www.w3.org/2000/svg" xmlns:xlink="http://www.w3.org/1999/xlink" width="42px" height="74px" viewBox="0 0 42 73" version="1.1">
<g id="surface1">
<path style="fill-rule:nonzero;fill:rgb(100%,100%,100%);fill-opacity:1;stroke-width:1;stroke-linecap:butt;stroke-linejoin:miter;stroke:rgb(0%,0%,0%);stroke-opacity:1;stroke-miterlimit:4;" d="M 0 50.005351 L 41.667597 50.005351 L 41.667597 99.997324 L 0 99.997324 Z M 0 99.997324 L 41.667597 99.997324 L 41.667597 150.002676 L 0 150.002676 Z M 0 199.994649 L 41.667597 199.994649 L 41.667597 250 L 0 250 Z M 50.001116 150.002676 L 91.668713 150.002676 L 91.668713 199.994649 L 50.001116 199.994649 Z M 50.001116 99.997324 L 91.668713 99.997324 L 91.668713 150.002676 L 50.001116 150.002676 Z M 50.001116 50.005351 L 91.668713 50.005351 L 91.668713 99.997324 L 50.001116 99.997324 Z M 100.002232 50.005351 L 141.669829 50.005351 L 141.669829 99.997324 L 100.002232 99.997324 Z M 100.002232 99.997324 L 141.669829 99.997324 L 141.669829 150.002676 L 100.002232 150.002676 Z M 100.002232 199.994649 L 141.669829 199.994649 L 141.669829 250 L 100.002232 250 Z M 100.002232 199.994649 " transform="matrix(0.295775,0,0,0.292,0,0)"/>
</g>
</svg>
