<?xml version="1.0" encoding="UTF-8"?>
<svg xmlns="http://www.w3.org/2000/svg" xmlns:xlink="http://www.w3.org/1999/xlink" width="24px" height="42px" viewBox="0 0 24 42" version="1.1">
<g id="surface1">
<path style="fill-rule:nonzero;fill:rgb(100%,100%,100%);fill-opacity:1;stroke-width:1;stroke-linecap:butt;stroke-linejoin:miter;stroke:rgb(0%,0%,0%);stroke-opacity:1;stroke-miterlimit:4;" d="M 0 50.000255 L 41.670849 50.000255 L 41.670849 99.992228 L 0 99.992228 Z M 0 99.992228 L 41.670849 99.992228 L 41.670849 150.007772 L 0 150.007772 Z M 0 199.999745 L 41.670849 199.999745 L 41.670849 249.991719 L 0 249.991719 Z M 49.991151 150.007772 L 91.662 150.007772 L 91.662 199.999745 L 49.991151 199.999745 Z M 49.991151 99.992228 L 91.662 99.992228 L 91.662 150.007772 L 49.991151 150.007772 Z M 49.991151 50.000255 L 91.662 50.000255 L 91.662 99.992228 L 49.991151 99.992228 Z M 100.005415 50.000255 L 141.676264 50.000255 L 141.676264 99.992228 L 100.005415 99.992228 Z M 100.005415 99.992228 L 141.676264 99.992228 L 141.676264 150.007772 L 100.005415 150.007772 Z M 100.005415 199.999745 L 141.676264 199.999745 L 141.676264 249.991719 L 100.005415 249.991719 Z M 100.005415 199.999745 " transform="matrix(0.169014,0,0,0.16573,0,0.283784)"/>
</g>
</svg>
